<svg xmlns="http://www.w3.org/2000/svg" width="1280" height="640" viewBox="0 0 1280 640" role="img" aria-labelledby="title desc">
  <title id="title">bilig GitHub social preview</title>
  <desc id="desc">A social preview image for bilig, a headless spreadsheet engine for agents and Node services.</desc>
  <rect width="1280" height="640" fill="#101418"/>
  <rect x="64" y="64" width="1152" height="512" rx="28" fill="#f7f3ea"/>
  <rect x="108" y="112" width="292" height="64" rx="12" fill="#101418"/>
  <text x="132" y="156" fill="#f7f3ea" font-family="Inter, Arial, sans-serif" font-size="36" font-weight="700">bilig</text>
  <text x="108" y="242" fill="#101418" font-family="Inter, Arial, sans-serif" font-size="60" font-weight="800">Headless spreadsheet</text>
  <text x="108" y="314" fill="#101418" font-family="Inter, Arial, sans-serif" font-size="58" font-weight="780">engine for agents</text>
  <text x="108" y="384" fill="#101418" font-family="Inter, Arial, sans-serif" font-size="58" font-weight="780">and Node services</text>
  <text x="112" y="464" fill="#2d5b55" font-family="Inter, Arial, sans-serif" font-size="32" font-weight="700">@bilig/headless</text>
  <text x="112" y="516" fill="#394149" font-family="Inter, Arial, sans-serif" font-size="27" font-weight="500">Formulas • structural edits • persistence • benchmark evidence</text>
  <g transform="translate(872 142)">
    <rect x="0" y="0" width="238" height="238" rx="18" fill="#ffffff" stroke="#101418" stroke-width="8"/>
    <path d="M0 64H238M0 119H238M0 174H238M64 0V238M119 0V238M174 0V238" stroke="#101418" stroke-width="8"/>
    <rect x="64" y="64" width="55" height="55" fill="#2d5b55"/>
    <rect x="119" y="119" width="55" height="55" fill="#c7502f"/>
    <rect x="174" y="64" width="55" height="55" fill="#f4c542"/>
  </g>
  <text x="822" y="430" fill="#101418" font-family="Inter, Arial, sans-serif" font-size="25" font-weight="700">github.com/proompteng/bilig</text>
  <text x="822" y="474" fill="#394149" font-family="Inter, Arial, sans-serif" font-size="24" font-weight="500">local-first workbook runtime</text>
</svg>
