<svg xmlns="http://www.w3.org/2000/svg" width="1280" height="720" viewBox="0 0 1280 720">
  <defs>
    <linearGradient id="panel" x1="0" x2="1" y1="0" y2="1">
      <stop offset="0" stop-color="#ffffff"/>
      <stop offset="1" stop-color="#eef4f7"/>
    </linearGradient>
    <linearGradient id="dark" x1="0" x2="1" y1="0" y2="1">
      <stop offset="0" stop-color="#101820"/>
      <stop offset="1" stop-color="#192838"/>
    </linearGradient>
    <filter id="shadow" x="-20%" y="-20%" width="140%" height="140%">
      <feDropShadow dx="0" dy="24" stdDeviation="28" flood-color="#102033" flood-opacity="0.16"/>
    </filter>
  </defs>

  <rect width="1280" height="720" fill="#f4f7f9"/>
  <path d="M0 590 C190 520 340 674 520 600 C700 526 814 502 1000 560 C1135 602 1210 592 1280 542 L1280 720 L0 720 Z" fill="#e4edf2"/>
  <g opacity="0.5" stroke="#d9e3ea" stroke-width="1">
    <path d="M96 0 V720"/>
    <path d="M224 0 V720"/>
    <path d="M352 0 V720"/>
    <path d="M480 0 V720"/>
    <path d="M608 0 V720"/>
    <path d="M736 0 V720"/>
    <path d="M864 0 V720"/>
    <path d="M992 0 V720"/>
    <path d="M1120 0 V720"/>
    <path d="M1248 0 V720"/>
  </g>

  <g transform="translate(64 58)">
    <rect x="0" y="0" width="56" height="56" rx="13" fill="#101820"/>
    <rect x="13" y="13" width="12" height="12" rx="3" fill="#77c98b"/>
    <rect x="31" y="13" width="12" height="12" rx="3" fill="#77c98b"/>
    <rect x="13" y="31" width="12" height="12" rx="3" fill="#77c98b"/>
    <rect x="31" y="31" width="12" height="12" rx="3" fill="#77c98b"/>
    <text x="74" y="38" fill="#111820" font-family="Inter, Arial, Helvetica, sans-serif" font-size="34" font-weight="820">bilig</text>
  </g>

  <text x="64" y="182" fill="#147a4b" font-family="Inter, Arial, Helvetica, sans-serif" font-size="28" font-weight="820">WorkPaper benchmark evidence</text>
  <text x="64" y="252" fill="#111820" font-family="Inter, Arial, Helvetica, sans-serif" font-size="86" font-weight="830" letter-spacing="0">47/57</text>
  <text x="66" y="310" fill="#111820" font-family="Inter, Arial, Helvetica, sans-serif" font-size="48" font-weight="800" letter-spacing="0">mean wins</text>
  <text x="66" y="354" fill="#526273" font-family="Inter, Arial, Helvetica, sans-serif" font-size="26" font-weight="650">Comparable HyperFormula-style workloads</text>

  <g filter="url(#shadow)">
    <rect x="64" y="382" width="560" height="278" rx="22" fill="url(#panel)" stroke="#cbd8e2"/>
  </g>
  <g transform="translate(88 428)">
  <text x="0" y="0" fill="#526273" font-family="Inter, Arial, Helvetica, sans-serif" font-size="24" font-weight="760">Overall</text>
  <text x="438" y="0" text-anchor="end" fill="#111820" font-family="Inter, Arial, Helvetica, sans-serif" font-size="25" font-weight="820">47/57</text>
  <rect x="0" y="16" width="460" height="22" rx="8" fill="#e6edf3"/>
  <rect x="0" y="16" width="379.30" height="22" rx="8" fill="#147a4b"/>
</g>
  <g transform="translate(88 508)">
  <text x="0" y="0" fill="#526273" font-family="Inter, Arial, Helvetica, sans-serif" font-size="24" font-weight="760">Public</text>
  <text x="438" y="0" text-anchor="end" fill="#111820" font-family="Inter, Arial, Helvetica, sans-serif" font-size="25" font-weight="820">34/40</text>
  <rect x="0" y="16" width="460" height="22" rx="8" fill="#e6edf3"/>
  <rect x="0" y="16" width="391.00" height="22" rx="8" fill="#147a4b"/>
</g>
  <g transform="translate(88 588)">
  <text x="0" y="0" fill="#526273" font-family="Inter, Arial, Helvetica, sans-serif" font-size="24" font-weight="760">Holdout</text>
  <text x="438" y="0" text-anchor="end" fill="#111820" font-family="Inter, Arial, Helvetica, sans-serif" font-size="25" font-weight="820">13/17</text>
  <rect x="0" y="16" width="460" height="22" rx="8" fill="#e6edf3"/>
  <rect x="0" y="16" width="351.76" height="22" rx="8" fill="#147a4b"/>
</g>

  <g filter="url(#shadow)">
    <rect x="666" y="92" width="550" height="546" rx="26" fill="url(#dark)"/>
  </g>
  <text x="710" y="154" fill="#9fb2c5" font-family="Inter, Arial, Helvetica, sans-serif" font-size="22" font-weight="760">Geomean latency ratios</text>

  <g transform="translate(710 196)">
    <rect x="0" y="0" width="462" height="116" rx="18" fill="#ffffff" fill-opacity="0.08" stroke="#36506a"/>
    <text x="28" y="43" fill="#ffffff" font-family="Inter, Arial, Helvetica, sans-serif" font-size="34" font-weight="840">Mean 0.606x</text>
    <text x="28" y="82" fill="#7ed894" font-family="Inter, Arial, Helvetica, sans-serif" font-size="24" font-weight="780">39% lower than HyperFormula</text>
  </g>

  <g transform="translate(710 340)">
    <rect x="0" y="0" width="462" height="116" rx="18" fill="#ffffff" fill-opacity="0.08" stroke="#36506a"/>
    <text x="28" y="43" fill="#ffffff" font-family="Inter, Arial, Helvetica, sans-serif" font-size="34" font-weight="840">p95 0.604x</text>
    <text x="28" y="82" fill="#7ed894" font-family="Inter, Arial, Helvetica, sans-serif" font-size="24" font-weight="780">40% lower geomean lead</text>
  </g>

  <g transform="translate(710 490)">
    <rect x="0" y="0" width="462" height="92" rx="18" fill="#f4d991" fill-opacity="0.14" stroke="#8a6a23"/>
    <text x="28" y="35" fill="#f3d98b" font-family="Inter, Arial, Helvetica, sans-serif" font-size="22" font-weight="820">Visible caveat</text>
    <text x="28" y="66" fill="#ffffff" font-family="Inter, Arial, Helvetica, sans-serif" font-size="21" font-weight="650">structural-append-formula-rows p95: 2.244x</text>
  </g>

  <text x="64" y="686" fill="#526273" font-family="SFMono-Regular, Menlo, Consolas, monospace" font-size="20">pnpm workpaper:bench:competitive:check</text>
  <text x="1216" y="686" text-anchor="end" fill="#526273" font-family="Inter, Arial, Helvetica, sans-serif" font-size="18" font-weight="650">artifact 2026-05-16</text>
</svg>